<?xml version="1.0" encoding="UTF-8"?>
<svg id="Layer_2" data-name="Layer 2" xmlns="http://www.w3.org/2000/svg" viewBox="0 0 629.76 205.91">
  <defs>
    <style>
      .cls-1 {
        fill: #70e000;
      }
    </style>
  </defs>
  <g id="Layer_2-2" data-name="Layer 2">
    <g>
      <g>
        <path class="cls-1" d="M519.68,205.46v-21.33h8.07c.83,0,1.73.06,2.69.17.96.11,1.86.35,2.69.72.83.37,1.52.93,2.05,1.69s.8,1.78.8,3.07c0,.81-.16,1.56-.47,2.25-.32.7-.89,1.26-1.72,1.69s-2.02.7-3.56.81c1.79,0,3.18.26,4.15.77.97.51,1.65,1.15,2.03,1.92.38.77.57,1.62.57,2.56,0,1.34-.29,2.39-.87,3.14-.58.76-1.33,1.32-2.24,1.69-.91.37-1.88.6-2.9.7-1.02.1-1.99.15-2.9.15h-8.37ZM522.79,193.22h4.58c1.04,0,1.96-.06,2.78-.17.82-.11,1.47-.4,1.95-.85.48-.45.72-1.16.72-2.12,0-1.04-.25-1.79-.76-2.25-.51-.47-1.17-.76-2.01-.89-.83-.13-1.72-.19-2.65-.19h-4.62v6.48ZM522.79,202.88h5c1.09,0,2.07-.07,2.96-.21.88-.14,1.6-.45,2.14-.95.54-.49.81-1.27.81-2.33s-.28-1.89-.85-2.42-1.33-.88-2.27-1.04c-.95-.16-1.98-.25-3.09-.25h-4.7v7.2Z"/>
        <path class="cls-1" d="M547.83,205.91c-2.93,0-5.17-.83-6.73-2.48-1.55-1.65-2.33-4.01-2.33-7.07v-12.24h3.3v12.2c0,1.64.27,2.95.8,3.92s1.23,1.66,2.1,2.07,1.82.61,2.86.61c1.14,0,2.14-.2,3.01-.59.87-.39,1.55-1.07,2.05-2.05.49-.97.74-2.29.74-3.96v-12.2h3.3v12.24c0,3.11-.76,5.47-2.29,7.1s-3.8,2.44-6.8,2.44Z"/>
        <path class="cls-1" d="M559.65,205.46v-21.33h8.07c.83,0,1.73.06,2.69.17.96.11,1.86.35,2.69.72.83.37,1.52.93,2.05,1.69s.8,1.78.8,3.07c0,.81-.16,1.56-.47,2.25-.32.7-.89,1.26-1.72,1.69s-2.02.7-3.56.81c1.79,0,3.18.26,4.15.77.97.51,1.65,1.15,2.03,1.92.38.77.57,1.62.57,2.56,0,1.34-.29,2.39-.87,3.14-.58.76-1.33,1.32-2.24,1.69-.91.37-1.88.6-2.9.7-1.02.1-1.99.15-2.9.15h-8.37ZM562.76,193.22h4.58c1.04,0,1.96-.06,2.78-.17.82-.11,1.47-.4,1.95-.85.48-.45.72-1.16.72-2.12,0-1.04-.25-1.79-.76-2.25-.51-.47-1.17-.76-2.01-.89-.83-.13-1.72-.19-2.65-.19h-4.62v6.48ZM562.76,202.88h5c1.09,0,2.07-.07,2.96-.21.88-.14,1.6-.45,2.14-.95.54-.49.81-1.27.81-2.33s-.28-1.89-.85-2.42-1.33-.88-2.27-1.04c-.95-.16-1.98-.25-3.09-.25h-4.7v7.2Z"/>
        <path class="cls-1" d="M578.94,205.46v-21.33h8.07c.83,0,1.73.06,2.69.17.96.11,1.86.35,2.69.72.83.37,1.52.93,2.05,1.69s.8,1.78.8,3.07c0,.81-.16,1.56-.47,2.25-.32.7-.89,1.26-1.72,1.69s-2.02.7-3.56.81c1.79,0,3.18.26,4.15.77.97.51,1.65,1.15,2.03,1.92.38.77.57,1.62.57,2.56,0,1.34-.29,2.39-.87,3.14-.58.76-1.33,1.32-2.24,1.69-.91.37-1.88.6-2.9.7-1.02.1-1.99.15-2.9.15h-8.37ZM582.04,193.22h4.58c1.04,0,1.96-.06,2.78-.17.82-.11,1.47-.4,1.95-.85.48-.45.72-1.16.72-2.12,0-1.04-.25-1.79-.76-2.25-.51-.47-1.17-.76-2.01-.89-.83-.13-1.72-.19-2.65-.19h-4.62v6.48ZM582.04,202.88h5c1.09,0,2.07-.07,2.96-.21.88-.14,1.6-.45,2.14-.95.54-.49.81-1.27.81-2.33s-.28-1.89-.85-2.42-1.33-.88-2.27-1.04c-.95-.16-1.98-.25-3.09-.25h-4.7v7.2Z"/>
        <path class="cls-1" d="M598.49,205.46v-21.33h3.14v18.6h11.18v2.73h-14.32Z"/>
        <path class="cls-1" d="M617.47,202.88h12.05v2.58h-15.16v-21.33h14.78v2.73h-11.67v6.48h9.09v2.61h-9.09v6.93Z"/>
      </g>
      <g>
        <g>
          <path class="cls-1" d="M67.4,163.83c-10.66,0-20.22-1.16-28.66-3.47-8.45-2.31-15.54-5.63-21.27-9.96-5.73-4.32-10.11-9.7-13.13-16.14C1.96,129.19.52,123.56.02,117.37c-.24-2.92,1.78-5.55,4.65-6.17l12.09-2.6c3.42-.74,6.67,1.66,7.11,5.14.59,4.63,2.13,8.7,4.62,12.23,3.62,5.13,8.85,9,15.69,11.62,6.84,2.62,14.98,3.92,24.44,3.92,12.07,0,21.37-2.01,27.91-6.03,6.53-4.02,9.81-9.55,9.81-16.59,0-5.63-1.81-10-5.43-13.12-3.62-3.12-8.65-5.58-15.09-7.39-6.44-1.81-13.88-3.52-22.33-5.13-7.44-1.81-14.78-3.72-22.03-5.73-7.24-2.01-13.83-4.63-19.76-7.84-5.94-3.22-10.66-7.54-14.18-12.97-3.52-5.43-5.28-12.17-5.28-20.22,0-9.45,2.46-17.65,7.39-24.59,4.93-6.94,12.02-12.32,21.27-16.14C40.14,1.91,51.21,0,64.08,0s23.28,1.91,32.44,5.73c9.15,3.82,16.39,9.46,21.72,16.9,4.38,6.12,7.1,13.26,8.15,21.41.39,3.04-1.56,5.89-4.55,6.56l-12.48,2.81c-3.36.76-6.59-1.52-7.14-4.93-.71-4.47-2.21-8.36-4.49-11.68-3.32-4.83-8-8.45-14.03-10.86-6.03-2.41-12.97-3.62-20.82-3.62-10.66,0-19.06,2.01-25.19,6.03-6.14,4.03-9.2,9.56-9.2,16.59,0,5.63,1.86,10.06,5.58,13.28,3.72,3.22,8.8,5.69,15.24,7.39,6.44,1.71,13.58,3.37,21.42,4.98,7.85,1.61,15.44,3.37,22.78,5.28,7.34,1.91,13.93,4.53,19.76,7.84,5.83,3.32,10.46,7.69,13.88,13.12,3.42,5.43,5.13,12.37,5.13,20.82,0,9.86-2.67,18.25-8,25.19-5.33,6.94-12.88,12.17-22.63,15.69-9.76,3.52-21.17,5.28-34.25,5.28Z"/>
          <path class="cls-1" d="M414.34,159.91c-2.69,0-4.87-2.18-4.87-4.87V8.79c0-2.69,2.18-4.87,4.87-4.87h15.05c2.79,0,5,2.33,4.86,5.12l-2.69,52.77c-.03.68.51,1.25,1.19,1.25h2.22c.6,0,1.11-.45,1.18-1.05,1.62-12.82,4.29-23.79,8.02-32.9,3.82-9.35,8.9-16.49,15.24-21.42,6.33-4.93,14.03-7.39,23.08-7.39,2.41,0,4.98.2,7.69.6,1.64.24,3.36.63,5.18,1.17,2.18.64,3.65,2.67,3.53,4.94l-.97,18.69c-.16,3.1-3.15,5.26-6.15,4.43-1.08-.3-2.16-.54-3.25-.72-3.02-.5-5.94-.75-8.75-.75-8.05,0-14.89,2.67-20.52,8-5.63,5.33-10.31,12.67-14.03,22.03-.8,2-1.55,4.08-2.26,6.21-4.11,12.39-6.04,25.41-6.04,38.47v51.68c0,2.69-2.18,4.87-4.87,4.87h-17.72Z"/>
          <path class="cls-1" d="M628.69,138.79c-.41-7.44-.71-14.88-.91-22.33-.2-7.44-.41-14.48-.6-21.12v-33.19c0-14.28-2.26-25.99-6.79-35.15-4.52-9.15-11.21-15.94-20.06-20.37-8.85-4.42-19.72-6.64-32.59-6.64-8.85,0-17.1,1.06-24.74,3.17-7.65,2.11-14.38,5.28-20.22,9.5-5.84,4.22-10.66,9.35-14.48,15.39-3.09,4.88-5.4,10.49-6.91,16.82-.61,2.55.92,5.13,3.44,5.85l15.69,4.48c2.72.78,5.53-.89,6.14-3.65,1.35-6.06,3.72-11.02,7.13-14.9,4.32-4.93,9.5-8.4,15.54-10.41,6.03-2.01,11.97-3.02,17.8-3.02,10.86,0,19.05,2.62,24.59,7.84,5.53,5.23,8.3,11.97,8.3,20.22,0,4.22-1.01,7.44-3.02,9.65-2.01,2.22-5.48,3.82-10.41,4.83-4.93,1.01-11.72,2.11-20.37,3.32-11.87,1.61-22.18,3.72-30.93,6.34-8.75,2.62-16.04,5.84-21.87,9.65-5.84,3.82-10.21,8.6-13.13,14.33-2.92,5.73-4.37,12.52-4.37,20.37,0,10.06,2.01,18.31,6.03,24.74,4.02,6.44,9.45,11.27,16.29,14.48,6.84,3.21,14.48,4.83,22.93,4.83,10.66,0,19.91-2.16,27.76-6.49,7.84-4.32,14.33-10,19.46-17.05,4.83-6.63,8.55-13.89,11.15-21.78.29-.87,1.08-1.46,1.99-1.46h0c1.16,0,2.09.94,2.09,2.1.02,6.52.12,12.97.3,19.33.15,5.49.31,11.03.47,16.64.07,2.66,2.25,4.78,4.92,4.78h15.51c2.88,0,5.13-2.45,4.9-5.32-.41-5.05-.76-10.32-1.05-15.8ZM590.97,116.77c-3.82,5.63-8.05,10.26-12.67,13.88-4.63,3.62-9.41,6.34-14.33,8.15-4.93,1.81-9.81,2.72-14.63,2.72-7.84,0-14.13-2.06-18.86-6.19-4.73-4.12-7.09-10.11-7.09-17.95,0-6.64,1.61-11.87,4.83-15.69,3.21-3.82,7.54-6.79,12.97-8.9,5.43-2.11,11.41-3.77,17.95-4.98,6.53-1.21,13.02-2.26,19.46-3.17,6.43-.91,12.27-2.21,17.5-3.92.86-.28,1.69-.59,2.5-.91s1.73.26,1.73,1.16v4.8c0,10.96-3.11,21.75-9.24,30.85-.04.06-.08.11-.11.17Z"/>
          <path class="cls-1" d="M316.27,21.9c15.94,0,30.99,6.27,42.37,17.65,11.38,11.38,17.65,26.43,17.65,42.37s-6.27,30.99-17.65,42.37c-11.38,11.38-26.43,17.65-42.37,17.65h-94.37c-15.94,0-30.99-6.27-42.37-17.65-11.38-11.38-17.65-26.43-17.65-42.37s6.27-30.99,17.65-42.37c11.38-11.38,26.43-17.65,42.37-17.65h94.37M316.27,0h-94.37c-45.05,0-81.92,36.86-81.92,81.92h0c0,45.05,36.86,81.92,81.92,81.92h94.37c45.05,0,81.92-36.86,81.92-81.92h0C398.19,36.86,361.33,0,316.27,0h0Z"/>
        </g>
        <path class="cls-1" d="M177.58,77.58c-.35,0-.7-.05-1.06-.14-2.66-.63-4.29-3.3-3.66-5.96,1.42-5.96,6.33-20.94,21.07-31.25,10.53-7.36,21.33-9.18,28.55-9.41,2.72-.08,5.01,2.06,5.1,4.79.09,2.73-2.06,5.01-4.79,5.1-5.87.18-14.66,1.66-23.19,7.63-11.96,8.36-15.95,20.58-17.11,25.44-.55,2.3-2.63,3.84-4.9,3.8Z"/>
        <path class="cls-1" d="M338.28,126.49c-1.42-.19-2.74-1-3.54-2.31-1.43-2.33-.71-5.37,1.62-6.8,5.21-3.2,12.45-9.03,17.35-18.59,2.53-4.93,4.14-10.27,4.79-15.86.32-2.71,2.77-4.66,5.48-4.34.03,0,.07,0,.1.01,2.66.36,4.55,2.79,4.24,5.47-.79,6.77-2.75,13.25-5.82,19.24-5.95,11.59-14.69,18.63-20.97,22.5-1.01.62-2.16.84-3.26.69Z"/>
      </g>
    </g>
  </g>
</svg>